<?xml version="1.0" encoding="utf-8"?>
<!-- Generator: Adobe Illustrator 18.1.1, SVG Export Plug-In . SVG Version: 6.00 Build 0)  -->
<svg version="1.1" id="Layer_1" xmlns="http://www.w3.org/2000/svg" xmlns:xlink="http://www.w3.org/1999/xlink" x="0px" y="0px"
	 viewBox="0 0 150 30" enable-background="new 0 0 150 30" xml:space="preserve">
<path stroke="#000000" stroke-miterlimit="10" d="M27,15c0,8-5.9,14.5-13.2,14.5C6.5,29.5,0.6,23,0.6,15"/>
<path stroke="#000000" stroke-miterlimit="10" d="M31.1,15c0-8,5.9-14.5,13.2-14.5S57.5,7,57.5,15"/>
<path stroke="#000000" stroke-miterlimit="10" d="M88.1,15c0,8-5.9,14.5-13.2,14.5c-7.3,0-13.2-6.5-13.2-14.5"/>
<path stroke="#000000" stroke-miterlimit="10" d="M92.1,15c0-8,5.9-14.5,13.2-14.5c7.3,0,13.2,6.5,13.2,14.5"/>
<path stroke="#000000" stroke-miterlimit="10" d="M149.1,15c0,8-5.9,14.5-13.2,14.5c-7.3,0-13.2-6.5-13.2-14.5"/>
</svg>
