<?xml version="1.0" encoding="utf-8"?>
<!-- Generator: Adobe Illustrator 18.1.1, SVG Export Plug-In . SVG Version: 6.00 Build 0)  -->
<svg version="1.1" id="Layer_1" xmlns="http://www.w3.org/2000/svg" xmlns:xlink="http://www.w3.org/1999/xlink" x="0px" y="0px"
	 viewBox="0 0 150 30" enable-background="new 0 0 150 30" xml:space="preserve">
<path stroke="#000000" stroke-miterlimit="10" d="M13.9,1.2c7.4,0,13.3,6,13.3,13.3c0,7.4-6,13.3-13.3,13.3"/>
<path stroke="#000000" stroke-miterlimit="10" d="M0.6,13.5C1.2,6.6,6.9,1.2,13.9,1.2"/>
<path stroke="#000000" stroke-miterlimit="10" d="M13.9,27.9c-7.4,0-13.3-6-13.3-13.3c0-0.4,0-0.7,0-1.1"/>
<path stroke="#000000" stroke-miterlimit="10" d="M88.7,14.5c0,7.4-6,13.3-13.3,13.3"/>
<path stroke="#000000" stroke-miterlimit="10" d="M62,14.5c0-7.4,6-13.3,13.3-13.3"/>
<path stroke="#000000" stroke-miterlimit="10" d="M75.3,27.9c-7.4,0-13.3-6-13.3-13.3"/>
<path stroke="#000000" stroke-miterlimit="10" d="M149.5,14.5c0,7.4-6,13.3-13.3,13.3"/>
<path stroke="#000000" stroke-miterlimit="10" d="M136.2,1.2c7.4,0,13.3,6,13.3,13.3"/>
<path stroke="#000000" stroke-miterlimit="10" d="M136.2,27.9c-7.4,0-13.3-6-13.3-13.3c0-7.4,6-13.3,13.3-13.3"/>
<path stroke="#000000" stroke-miterlimit="10" d="M118.5,14.5c0,7.4-6,13.3-13.3,13.3"/>
<path stroke="#000000" stroke-miterlimit="10" d="M105.2,1.2c7.4,0,13.3,6,13.3,13.3"/>
<path stroke="#000000" stroke-miterlimit="10" d="M105.2,27.9c-7.4,0-13.3-6-13.3-13.3c0-7.4,6-13.3,13.3-13.3"/>
<path stroke="#000000" stroke-miterlimit="10" d="M44.9,1.2c7.4,0,13.3,6,13.3,13.3s-6,13.3-13.3,13.3"/>
<path stroke="#000000" stroke-miterlimit="10" d="M31.6,13.5c0.6-6.9,6.3-12.2,13.3-12.2"/>
<path stroke="#000000" stroke-miterlimit="10" d="M44.9,27.9c-7.4,0-13.3-6-13.3-13.3c0-0.4,0-0.7,0-1.1"/>
<path stroke="#000000" stroke-miterlimit="10" d="M75,1.9L63.4,12.7c-0.7,0.7-0.8,1.9-0.1,2.6l11,11.4c0.6,0.6,1.6,0.6,2.2,0
	l12.2-12.2c0-7.4-6-13.3-13.3-13.3"/>
</svg>
