<svg xmlns="http://www.w3.org/2000/svg" viewBox="0 0 150 30" enable-background="new 0 0 150 30"><path stroke="#000" stroke-miterlimit="10" d="M13.9 1.2c7.4 0 13.3 6 13.3 13.3 0 7.4-6 13.3-13.3 13.3M.6 13.5C1.2 6.6 6.9 1.2 13.9 1.2M13.9 27.9C6.5 27.9.6 21.9.6 14.6v-1.1M88.7 14.5c0 7.4-6 13.3-13.3 13.3M62 14.5c0-7.4 6-13.3 13.3-13.3M75.3 27.9c-7.4 0-13.3-6-13.3-13.3M149.5 14.5c0 7.4-6 13.3-13.3 13.3M136.2 1.2c7.4 0 13.3 6 13.3 13.3M136.2 27.9c-7.4 0-13.3-6-13.3-13.3 0-7.4 6-13.3 13.3-13.3M118.5 14.5c0 7.4-6 13.3-13.3 13.3M105.2 1.2c7.4 0 13.3 6 13.3 13.3M105.2 27.9c-7.4 0-13.3-6-13.3-13.3 0-7.4 6-13.3 13.3-13.3M44.9 1.2c7.4 0 13.3 6 13.3 13.3s-6 13.3-13.3 13.3M31.6 13.5c.6-6.9 6.3-12.2 13.3-12.2M44.9 27.9c-7.4 0-13.3-6-13.3-13.3v-1.1M75 1.9L63.4 12.7c-.7.7-.8 1.9-.1 2.6l11 11.4c.6.6 1.6.6 2.2 0l12.2-12.2c0-7.4-6-13.3-13.3-13.3"/></svg>